<svg xmlns="http://www.w3.org/2000/svg" width="194" height="174" fill="none" viewBox="0 0 194 174">
    <path stroke="#07F" stroke-linecap="round" stroke-width="15" d="M116.182 16H18c-5.523 0-10 4.477-10 10v130c0 5.523 4.477 10 10 10h130c5.523 0 10-4.477 10-10V92.5"/>
    <rect width="43" height="110.002" x="161.114" y="5.622" stroke="#07F" stroke-width="8" rx="6" transform="rotate(51.401 161.114 5.622)"/>
    <path stroke="#07F" stroke-width="8" d="m57.041 88.412-7.42 25.655c-1.342 4.641 2.308 9.214 7.13 8.933l26.662-1.55c5.67-.33 8.607-6.918 5.065-11.356L69.236 85.99c-3.543-4.438-10.617-3.033-12.195 2.422ZM170.65 55.273l-28.074-35.169"/>
  </svg>