<svg xmlns="http://www.w3.org/2000/svg" width="180" height="166" fill="none" viewBox="0 0 180 166">
    <path stroke="#07F" stroke-linecap="round" stroke-width="15" d="M116.182 8H18C12.477 8 8 12.477 8 18v130c0 5.523 4.477 10 10 10h130c5.523 0 10-4.477 10-10V84.5"/>
    <rect width="43" height="110.002" x="147.114" y="10.622" stroke="#07F" stroke-width="8" rx="6" transform="rotate(51.401 147.114 10.622)"/>
    <path stroke="#07F" stroke-width="8" d="m43.041 93.412-7.42 25.655c-1.342 4.641 2.308 9.214 7.13 8.933l26.662-1.55c5.67-.33 8.607-6.918 5.065-11.356L55.236 90.99c-3.543-4.438-10.617-3.033-12.195 2.422ZM156.65 60.273l-28.073-35.169"/>
  </svg>